REM DIRINDEX 1\3,1\2\4,1\2\5,1\2\6
REM DIRNAME folder01,folder02,folder03,folder04,folder05,folder06
TITLE ""
FILE "085.mp3" MP3
  TRACK 01 AUDIO
    TITLE "4:cjc137_3489"
    INDEX 01 00:00:00
  TRACK 02 AUDIO
    TITLE "0:"
    INDEX 01 00:01:13
  TRACK 03 AUDIO
    TITLE "6:cjc137_3490"
    INDEX 01 00:01:19
  TRACK 04 AUDIO
    TITLE "0:"
    INDEX 01 00:02:67
  TRACK 05 AUDIO
    TITLE "5:cjc137_3491"
    INDEX 01 00:02:71
  TRACK 06 AUDIO
    TITLE "0:"
    INDEX 01 00:04:07
  TRACK 07 AUDIO
    TITLE "4:cjc137_3492"
    INDEX 01 00:05:18
  TRACK 08 AUDIO
    TITLE "0:"
    INDEX 01 00:06:16
  TRACK 09 AUDIO
    TITLE "6:cjc137_3493"
    INDEX 01 00:06:33
  TRACK 10 AUDIO
    TITLE "0:"
    INDEX 01 00:07:25
  TRACK 11 AUDIO
    TITLE "5:cjc137_3494"
    INDEX 01 00:07:29
  TRACK 12 AUDIO
    TITLE "0:"
    INDEX 01 00:08:28
  TRACK 13 AUDIO
    TITLE "4:cjc137_3495"
    INDEX 01 00:09:44
  TRACK 14 AUDIO
    TITLE "0:"
    INDEX 01 00:10:74
  TRACK 15 AUDIO
    TITLE "6:cjc137_3496"
    INDEX 01 00:11:05
  TRACK 16 AUDIO
    TITLE "0:"
    INDEX 01 00:12:05
  TRACK 17 AUDIO
    TITLE "5:cjc137_3497"
    INDEX 01 00:12:11
  TRACK 18 AUDIO
    TITLE "0:"
    INDEX 01 00:13:37
  TRACK 19 AUDIO
    TITLE "4:cjc137_3498"
    INDEX 01 00:14:49
  TRACK 20 AUDIO
    TITLE "0:"
    INDEX 01 00:15:68
  TRACK 21 AUDIO
    TITLE "6:cjc137_3499"
    INDEX 01 00:15:72
  TRACK 22 AUDIO
    TITLE "0:"
    INDEX 01 00:17:23
  TRACK 23 AUDIO
    TITLE "5:cjc137_3500"
    INDEX 01 00:17:29
  TRACK 24 AUDIO
    TITLE "0:"
    INDEX 01 00:18:50
  TRACK 25 AUDIO
    TITLE "4:cjc137_3501"
    INDEX 01 00:19:56
  TRACK 26 AUDIO
    TITLE "0:"
    INDEX 01 00:21:08
  TRACK 27 AUDIO
    TITLE "6:cjc137_3502"
    INDEX 01 00:21:15
  TRACK 28 AUDIO
    TITLE "0:"
    INDEX 01 00:22:38
  TRACK 29 AUDIO
    TITLE "5:cjc137_3503"
    INDEX 01 00:22:42
  TRACK 30 AUDIO
    TITLE "0:"
    INDEX 01 00:23:71
  TRACK 31 AUDIO
    TITLE "4:cjc137_3504"
    INDEX 01 00:25:01
  TRACK 32 AUDIO
    TITLE "0:"
    INDEX 01 00:26:22
  TRACK 33 AUDIO
    TITLE "6:cjc137_3505"
    INDEX 01 00:26:28
  TRACK 34 AUDIO
    TITLE "0:"
    INDEX 01 00:27:55
  TRACK 35 AUDIO
    TITLE "5:cjc137_3506"
    INDEX 01 00:27:61
  TRACK 36 AUDIO
    TITLE "0:"
    INDEX 01 00:29:05
  TRACK 37 AUDIO
    TITLE "4:cjc137_3507"
    INDEX 01 00:30:14
  TRACK 38 AUDIO
    TITLE "0:"
    INDEX 01 00:31:16
  TRACK 39 AUDIO
    TITLE "6:cjc137_3508"
    INDEX 01 00:31:20
  TRACK 40 AUDIO
    TITLE "0:"
    INDEX 01 00:32:41
  TRACK 41 AUDIO
    TITLE "5:cjc137_3509"
    INDEX 01 00:32:47
  TRACK 42 AUDIO
    TITLE "0:"
    INDEX 01 00:33:46
  TRACK 43 AUDIO
    TITLE "4:cjc137_3510"
    INDEX 01 00:34:57
  TRACK 44 AUDIO
    TITLE "0:"
    INDEX 01 00:35:64
  TRACK 45 AUDIO
    TITLE "6:cjc137_3511"
    INDEX 01 00:35:68
  TRACK 46 AUDIO
    TITLE "0:"
    INDEX 01 00:37:28
  TRACK 47 AUDIO
    TITLE "5:cjc137_3512"
    INDEX 01 00:37:36
  TRACK 48 AUDIO
    TITLE "0:"
    INDEX 01 00:38:43
  TRACK 49 AUDIO
    TITLE "4:cjc137_3513"
    INDEX 01 00:39:52
  TRACK 50 AUDIO
    TITLE "0:"
    INDEX 01 00:40:58
  TRACK 51 AUDIO
    TITLE "6:cjc137_3514"
    INDEX 01 00:40:70
  TRACK 52 AUDIO
    TITLE "0:"
    INDEX 01 00:42:04
  TRACK 53 AUDIO
    TITLE "5:cjc137_3515"
    INDEX 01 00:42:08
  TRACK 54 AUDIO
    TITLE "0:"
    INDEX 01 00:43:17
  TRACK 55 AUDIO
    TITLE "4:cjc137_3516"
    INDEX 01 00:44:26
  TRACK 56 AUDIO
    TITLE "0:"
    INDEX 01 00:45:28
  TRACK 57 AUDIO
    TITLE "6:cjc137_3517"
    INDEX 01 00:45:39
  TRACK 58 AUDIO
    TITLE "0:"
    INDEX 01 00:46:68
  TRACK 59 AUDIO
    TITLE "5:cjc137_3518"
    INDEX 01 00:47:01
  TRACK 60 AUDIO
    TITLE "0:"
    INDEX 01 00:48:02
  TRACK 61 AUDIO
    TITLE "4:cjc137_3519"
    INDEX 01 00:49:14
  TRACK 62 AUDIO
    TITLE "0:"
    INDEX 01 00:50:25
  TRACK 63 AUDIO
    TITLE "6:cjc137_3520"
    INDEX 01 00:50:33
  TRACK 64 AUDIO
    TITLE "0:"
    INDEX 01 00:51:26
  TRACK 65 AUDIO
    TITLE "5:cjc137_3521"
    INDEX 01 00:51:32
  TRACK 66 AUDIO
    TITLE "0:"
    INDEX 01 00:52:43
  TRACK 67 AUDIO
    TITLE "4:cjc137_3522"
    INDEX 01 00:53:51
  TRACK 68 AUDIO
    TITLE "0:"
    INDEX 01 00:55:04
  TRACK 69 AUDIO
    TITLE "6:cjc137_3523"
    INDEX 01 00:55:12
  TRACK 70 AUDIO
    TITLE "0:"
    INDEX 01 00:56:14
  TRACK 71 AUDIO
    TITLE "5:cjc137_3524"
    INDEX 01 00:56:20
  TRACK 72 AUDIO
    TITLE "0:"
    INDEX 01 00:57:46
  TRACK 73 AUDIO
    TITLE "4:cjc137_3525"
    INDEX 01 00:58:56
  TRACK 74 AUDIO
    TITLE "0:"
    INDEX 01 00:59:73
  TRACK 75 AUDIO
    TITLE "6:cjc137_3526"
    INDEX 01 01:00:08
  TRACK 76 AUDIO
    TITLE "0:"
    INDEX 01 01:01:33
  TRACK 77 AUDIO
    TITLE "5:cjc137_3527"
    INDEX 01 01:01:36
  TRACK 78 AUDIO
    TITLE "0:"
    INDEX 01 01:02:55
  TRACK 79 AUDIO
    TITLE "4:cjc137_3528"
    INDEX 01 01:03:65
  TRACK 80 AUDIO
    TITLE "0:"
    INDEX 01 01:05:05
  TRACK 81 AUDIO
    TITLE "6:cjc137_3529"
    INDEX 01 01:05:13
  TRACK 82 AUDIO
    TITLE "0:"
    INDEX 01 01:06:28
  TRACK 83 AUDIO
    TITLE "5:cjc137_3530"
    INDEX 01 01:06:38
  TRACK 84 AUDIO
    TITLE "0:"
    INDEX 01 01:07:53
